<mxfile host="app.diagrams.net" modified="2022-06-15T08:12:14.659Z" agent="5.0 (X11; Linux x86_64) AppleWebKit/537.36 (KHTML, like Gecko) Chrome/102.0.0.0 Safari/537.36" etag="Mxvc_q4SW3Z3-5YIqzXn" version="18.1.3" type="github">
  <diagram id="GWlVWCDsTEzYYvYcxX3m" name="Page-1">
    <mxGraphModel dx="1350" dy="773" grid="1" gridSize="10" guides="1" tooltips="1" connect="1" arrows="1" fold="1" page="1" pageScale="1" pageWidth="827" pageHeight="1169" math="0" shadow="0">
      <root>
        <mxCell id="0" />
        <mxCell id="1" parent="0" />
        <mxCell id="C_KMu0P_hX7JI2DiCEww-2" value="&lt;font style=&quot;font-size: 12px;&quot;&gt;&lt;span style=&quot;background-color: rgb(255, 255, 255); font-family: &amp;quot;Droid Sans Mono&amp;quot;, &amp;quot;monospace&amp;quot;, monospace, &amp;quot;Droid Sans Fallback&amp;quot;;&quot;&gt;OccupandyGrid2D&lt;/span&gt;(类名)&lt;/font&gt;" style="rounded=0;whiteSpace=wrap;html=1;" vertex="1" parent="1">
          <mxGeometry x="280" y="140" width="216" height="70" as="geometry" />
        </mxCell>
        <mxCell id="C_KMu0P_hX7JI2DiCEww-3" value="&lt;div style=&quot;&quot;&gt;&lt;span style=&quot;background-color: rgb(248, 249, 250);&quot;&gt;+&lt;/span&gt;&lt;span style=&quot;background-color: rgb(255, 255, 255); font-family: &amp;quot;Droid Sans Mono&amp;quot;, &amp;quot;monospace&amp;quot;, monospace, &amp;quot;Droid Sans Fallback&amp;quot;; font-size: 14px;&quot;&gt;&amp;nbsp;&lt;/span&gt;&lt;span style=&quot;background-color: rgb(255, 255, 255); font-family: &amp;quot;Droid Sans Mono&amp;quot;, &amp;quot;monospace&amp;quot;, monospace, &amp;quot;Droid Sans Fallback&amp;quot;; font-size: 14px;&quot;&gt;cell_size: const int （单个网格的大小）&amp;nbsp;&lt;/span&gt;&lt;span style=&quot;background-color: rgb(255, 255, 255); font-family: &amp;quot;Droid Sans Mono&amp;quot;, &amp;quot;monospace&amp;quot;, monospace, &amp;quot;Droid Sans Fallback&amp;quot;; font-size: 14px;&quot;&gt;&amp;nbsp;&lt;/span&gt;&lt;/div&gt;&lt;div style=&quot;background-color: rgb(255, 255, 255); font-family: &amp;quot;Droid Sans Mono&amp;quot;, &amp;quot;monospace&amp;quot;, monospace, &amp;quot;Droid Sans Fallback&amp;quot;; font-size: 14px; line-height: 19px;&quot;&gt;&lt;div&gt;+&amp;nbsp;n_cols：const int&amp;nbsp; &amp;nbsp; （网格的列数）&amp;nbsp;&lt;/div&gt;&lt;div&gt;+ n_rows：const int&amp;nbsp; &amp;nbsp;&amp;nbsp;（网格的行数）&amp;nbsp;&lt;/div&gt;&lt;div&gt;+&amp;nbsp;occupancy_：std&lt;span style=&quot;&quot;&gt;::&lt;/span&gt;vector&lt;span style=&quot;&quot;&gt;&amp;lt;&lt;/span&gt;bool&lt;span style=&quot;&quot;&gt;&amp;gt; （表示网格是否占据）&lt;/span&gt;&lt;/div&gt;&lt;div&gt;+&amp;nbsp;feature_occupancy_：std&lt;span style=&quot;&quot;&gt;::&lt;/span&gt;vector&lt;span style=&quot;&quot;&gt;&amp;lt;&lt;/span&gt;Keypoint&lt;span style=&quot;&quot;&gt;&amp;gt; 网格中包&lt;span style=&quot;&quot;&gt;	&lt;/span&gt;&lt;span style=&quot;&quot;&gt;	&lt;/span&gt;&lt;span style=&quot;&quot;&gt;	&lt;/span&gt;含的特征点，&lt;/span&gt;Keypoint 是一个二维的坐标向量&lt;/div&gt;&lt;/div&gt;" style="rounded=0;whiteSpace=wrap;html=1;align=left;" vertex="1" parent="1">
          <mxGeometry x="200" y="220" width="430" height="120" as="geometry" />
        </mxCell>
        <mxCell id="C_KMu0P_hX7JI2DiCEww-4" value="&lt;div style=&quot;background-color: rgb(255, 255, 255); font-family: &amp;quot;Droid Sans Mono&amp;quot;, &amp;quot;monospace&amp;quot;, monospace, &amp;quot;Droid Sans Fallback&amp;quot;; font-size: 14px; line-height: 19px;&quot;&gt;+ isOccupied：&amp;nbsp; bool&amp;nbsp; &amp;nbsp; (判断某个网格是否占据)&lt;/div&gt;&lt;div style=&quot;background-color: rgb(255, 255, 255); font-family: &amp;quot;Droid Sans Mono&amp;quot;, &amp;quot;monospace&amp;quot;, monospace, &amp;quot;Droid Sans Fallback&amp;quot;; font-size: 14px; line-height: 19px;&quot;&gt;&lt;div style=&quot;line-height: 19px;&quot;&gt;+ setOccupied： void&amp;nbsp; &amp;nbsp; (设置网格占据)&lt;/div&gt;&lt;div style=&quot;line-height: 19px;&quot;&gt;&lt;div style=&quot;line-height: 19px;&quot;&gt;+ numOccupied： int&amp;nbsp; &amp;nbsp; &amp;nbsp;(获取当前网格中特征点的数量)&lt;/div&gt;&lt;div style=&quot;line-height: 19px;&quot;&gt;&lt;div style=&quot;line-height: 19px;&quot;&gt;+ getCellIndex:&amp;nbsp;size_t&amp;nbsp; (特征点的坐标转换成网格的索引)&lt;/div&gt;&lt;div style=&quot;line-height: 19px;&quot;&gt;&lt;div style=&quot;line-height: 19px;&quot;&gt;+ fillWithKeypoints:&amp;nbsp; &amp;nbsp; (将特征点储存在当前容器中)&lt;/div&gt;&lt;/div&gt;&lt;/div&gt;&lt;/div&gt;&lt;/div&gt;" style="rounded=0;whiteSpace=wrap;html=1;align=left;" vertex="1" parent="1">
          <mxGeometry x="199" y="350" width="430" height="140" as="geometry" />
        </mxCell>
        <mxCell id="C_KMu0P_hX7JI2DiCEww-7" value="&lt;div style=&quot;background-color: rgb(255, 255, 255); font-family: &amp;quot;Droid Sans Mono&amp;quot;, &amp;quot;monospace&amp;quot;, monospace, &amp;quot;Droid Sans Fallback&amp;quot;; line-height: 19px;&quot;&gt;&lt;font style=&quot;font-size: 12px;&quot;&gt;AbstractDetector（特征提取类）&lt;/font&gt;&lt;/div&gt;" style="rounded=0;whiteSpace=wrap;html=1;fontSize=12;fontColor=#000000;" vertex="1" parent="1">
          <mxGeometry x="843" y="130" width="210" height="80" as="geometry" />
        </mxCell>
        <mxCell id="C_KMu0P_hX7JI2DiCEww-8" value="&lt;font style=&quot;font-size: 12px;&quot;&gt;+&amp;nbsp;&lt;span style=&quot;background-color: rgb(255, 255, 255); font-family: &amp;quot;Droid Sans Mono&amp;quot;, &amp;quot;monospace&amp;quot;, monospace, &amp;quot;Droid Sans Fallback&amp;quot;;&quot;&gt;options_：&amp;nbsp;&lt;/span&gt;&lt;span style=&quot;background-color: rgb(255, 255, 255); font-family: &amp;quot;Droid Sans Mono&amp;quot;, &amp;quot;monospace&amp;quot;, monospace, &amp;quot;Droid Sans Fallback&amp;quot;;&quot;&gt;DetectorOptions (特征提取相关参数类，包含需要设置的参数)&lt;/span&gt;&lt;span style=&quot;background-color: rgb(255, 255, 255); font-family: &amp;quot;Droid Sans Mono&amp;quot;, &amp;quot;monospace&amp;quot;, monospace, &amp;quot;Droid Sans Fallback&amp;quot;;&quot;&gt;&lt;br&gt;&lt;/span&gt;&lt;span style=&quot;background-color: rgb(255, 255, 255); font-family: &amp;quot;Droid Sans Mono&amp;quot;, &amp;quot;monospace&amp;quot;, monospace, &amp;quot;Droid Sans Fallback&amp;quot;;&quot;&gt;&lt;br&gt;+&amp;nbsp;&lt;/span&gt;&lt;span style=&quot;background-color: rgb(255, 255, 255); font-family: &amp;quot;Droid Sans Mono&amp;quot;, &amp;quot;monospace&amp;quot;, monospace, &amp;quot;Droid Sans Fallback&amp;quot;;&quot;&gt;grid_ ：&amp;nbsp;&lt;/span&gt;&lt;span style=&quot;text-align: center; background-color: rgb(255, 255, 255); font-family: &amp;quot;Droid Sans Mono&amp;quot;, &amp;quot;monospace&amp;quot;, monospace, &amp;quot;Droid Sans Fallback&amp;quot;;&quot;&gt;OccupandyGrid2D&amp;nbsp; (占据网格类，使得特征均匀)&lt;/span&gt;&lt;/font&gt;" style="rounded=0;whiteSpace=wrap;html=1;fontSize=12;fontColor=#000000;align=left;" vertex="1" parent="1">
          <mxGeometry x="763" y="240" width="370" height="100" as="geometry" />
        </mxCell>
        <mxCell id="C_KMu0P_hX7JI2DiCEww-10" value="&lt;div style=&quot;text-align: left;&quot;&gt;&lt;span style=&quot;background-color: initial;&quot;&gt;&lt;font style=&quot;font-size: 12px;&quot;&gt;+&amp;nbsp; detect(): void&amp;nbsp; (特征跟踪函数，不同的特征跟踪的类继承当前函数）&lt;/font&gt;&lt;/span&gt;&lt;/div&gt;&lt;div style=&quot;text-align: left;&quot;&gt;&lt;font style=&quot;font-size: 12px;&quot;&gt;&lt;span style=&quot;background-color: initial;&quot;&gt;（目前保留了三种特征获取的类：&lt;/span&gt;&lt;span style=&quot;background-color: rgb(255, 255, 255); font-family: &amp;quot;Droid Sans Mono&amp;quot;, &amp;quot;monospace&amp;quot;, monospace, &amp;quot;Droid Sans Fallback&amp;quot;; text-align: center;&quot;&gt;FastDetector fast特征，&lt;/span&gt;&lt;span style=&quot;background-color: rgb(255, 255, 255); font-family: &amp;quot;Droid Sans Mono&amp;quot;, &amp;quot;monospace&amp;quot;, monospace, &amp;quot;Droid Sans Fallback&amp;quot;; text-align: center;&quot;&gt;GradientDetectorGrid线特征，&amp;nbsp;&lt;/span&gt;&lt;span style=&quot;background-color: rgb(255, 255, 255); font-family: &amp;quot;Droid Sans Mono&amp;quot;, &amp;quot;monospace&amp;quot;, monospace, &amp;quot;Droid Sans Fallback&amp;quot;; text-align: center;&quot;&gt;FastGradDetector fast加上线特征&amp;nbsp;&lt;/span&gt;&lt;span style=&quot;background-color: initial;&quot;&gt;）&lt;/span&gt;&lt;/font&gt;&lt;/div&gt;" style="rounded=0;whiteSpace=wrap;html=1;fontSize=12;fontColor=#000000;" vertex="1" parent="1">
          <mxGeometry x="760" y="360" width="380" height="130" as="geometry" />
        </mxCell>
      </root>
    </mxGraphModel>
  </diagram>
</mxfile>
